<svg width="512" height="512" viewBox="0 0 512 512" fill="none" xmlns="http://www.w3.org/2000/svg">
<g clip-path="url(#clip0_5_67)">
<path d="M469.846 376C469.846 378.144 468.702 380.124 466.846 381.196L259 501.196C257.144 502.268 254.856 502.268 253 501.196L45.1543 381.196C43.2979 380.124 42.1543 378.144 42.1543 376V136C42.1543 133.856 43.2979 131.876 45.1543 130.804L253 10.8037L253.353 10.6152C255.14 9.73592 257.26 9.79889 259 10.8037L466.846 130.804C468.702 131.876 469.846 133.856 469.846 136V376Z" fill="#C44E4E" stroke="white" stroke-width="12" stroke-linejoin="round"/>
<path d="M256.5 117C258.644 117 260.624 118.144 261.696 120L376.444 318.75C377.516 320.606 377.516 322.894 376.444 324.75C375.373 326.606 373.392 327.75 371.248 327.75H141.752C139.608 327.75 137.627 326.606 136.556 324.75C135.484 322.894 135.484 320.606 136.556 318.75L251.304 120C252.376 118.144 254.356 117 256.5 117Z" stroke="white" stroke-width="12" stroke-linejoin="round"/>
<path d="M262.5 113.683C263.759 111.785 265.985 110.763 268.244 111.046L460.244 135.046C462.133 135.282 463.798 136.401 464.731 138.061C465.663 139.72 465.753 141.724 464.973 143.46L386.973 316.96C386.049 319.014 384.052 320.378 381.803 320.492C379.553 320.606 377.43 319.45 376.304 317.499L262.304 119.999C261.166 118.027 261.241 115.58 262.5 113.683Z" stroke="white" stroke-width="12" stroke-linejoin="round"/>
<path d="M135.193 321.229C132.917 321.133 130.892 319.758 129.964 317.678L51.1593 140.958C50.384 139.22 50.4803 137.216 51.4178 135.559C52.3554 133.903 54.0234 132.789 55.913 132.558L244.741 109.535C246.977 109.263 249.178 110.266 250.439 112.132C251.7 113.998 251.81 116.413 250.723 118.386L140.699 318.129C139.601 320.123 137.468 321.325 135.193 321.229Z" stroke="white" stroke-width="12" stroke-linejoin="round"/>
<path d="M245.997 14.8057C247.853 13.7326 250.141 13.7314 251.998 14.8027C253.855 15.8743 255 17.8557 255 20V101.5C255 104.531 252.739 107.085 249.731 107.455L70.7314 129.455C67.901 129.803 65.2165 128.11 64.3105 125.406C63.4046 122.702 64.5281 119.733 66.9971 118.306L245.997 14.8057Z" stroke="white" stroke-width="12" stroke-linejoin="round"/>
<path d="M266.004 14.8057C264.148 13.7326 261.86 13.7315 260.003 14.8027C258.145 15.8743 257.001 17.8557 257.001 20V101.5C257.001 104.531 259.261 107.085 262.268 107.455L441.269 129.455C444.1 129.803 446.784 128.11 447.69 125.406C448.596 122.702 447.473 119.733 445.004 118.306L266.004 14.8057Z" stroke="white" stroke-width="12" stroke-linejoin="round"/>
<path d="M256.501 502C254.56 502 252.738 501.06 251.613 499.478L136.33 337.478C135.028 335.648 134.858 333.245 135.887 331.25C136.916 329.254 138.973 328 141.219 328H371.783C374.029 328 376.086 329.254 377.115 331.25C378.145 333.245 377.974 335.648 376.672 337.478L261.39 499.478C260.264 501.06 258.443 501.999 256.501 502Z" stroke="white" stroke-width="12" stroke-linejoin="round"/>
<path d="M128.247 334.669C130.901 333.299 134.159 334.089 135.89 336.522L236.89 478.522C238.525 480.822 238.337 483.95 236.439 486.037C234.54 488.124 231.444 488.606 229 487.195L51.5001 384.695C49.6002 383.598 48.4505 381.552 48.5021 379.358C48.5537 377.165 49.7978 375.174 51.7472 374.168L128.247 334.669Z" stroke="white" stroke-width="12" stroke-linejoin="round"/>
<path d="M384.42 335.51C381.83 334.367 378.774 335.191 377.115 337.516L277.615 477.016C275.976 479.314 276.161 482.443 278.058 484.533C279.955 486.623 283.052 487.107 285.497 485.697L461.497 384.197C463.413 383.093 464.566 381.024 464.497 378.813C464.429 376.603 463.15 374.61 461.169 373.626L384.669 335.626L384.42 335.51Z" stroke="white" stroke-width="12" stroke-linejoin="round"/>
<path d="M45.3773 374.123C43.5904 373.034 42.5 371.093 42.4999 369L42.5002 149.999C42.5004 147.168 44.4796 144.722 47.2487 144.131C50.0181 143.541 52.8236 144.967 53.9783 147.553L133.478 325.552C134.777 328.459 133.579 331.874 130.75 333.333L51.2494 374.332L50.8966 374.5C49.113 375.277 47.0526 375.144 45.3773 374.123Z" stroke="white" stroke-width="12" stroke-linejoin="round"/>
<path d="M385.418 333.146C382.817 331.591 381.772 328.317 383.032 325.527L458.032 159.528C459.198 156.947 462.011 155.532 464.778 156.135C467.545 156.738 469.514 159.195 469.5 162.027L468.5 367.527C468.489 369.63 467.379 371.574 465.573 372.651C463.767 373.728 461.529 373.781 459.674 372.791L385.675 333.291L385.418 333.146Z" stroke="white" stroke-width="12" stroke-linejoin="round"/>
</g>
<defs>
<clipPath id="clip0_5_67">
<rect width="512" height="512" fill="white"/>
</clipPath>
</defs>
</svg>
